Coordinates
nRows=4
nColumns=38

# SIMM Motion File Header:
name Coordinates
datacolumns 38
datarows 4
otherdata 1
range 1.73150000000000000000 1.73449999999999990000

Units are S.I. units (second, meters, Newtons, ...)
Angles are in degrees.

endheader
time	pelvis_tilt	pelvis_list	pelvis_rotation	pelvis_tx	pelvis_ty	pelvis_tz	hip_flexion_r	hip_adduction_r	hip_rotation_r	knee_angle_r	ankle_angle_r	subtalar_angle_r	mtp_angle_r	hip_flexion_l	hip_adduction_l	hip_rotation_l	knee_angle_l	ankle_angle_l	subtalar_angle_l	mtp_angle_l	lumbar_extension	lumbar_bending	lumbar_rotation	arm_flex_r	arm_add_r	arm_rot_r	elbow_flex_r	pro_sup_r	wrist_flex_r	wrist_dev_r	arm_flex_l	arm_add_l	arm_rot_l	elbow_flex_l	pro_sup_l	wrist_flex_l	wrist_dev_l
      1.73150000000000000000	     -2.57259816668408230000	      4.62650659754791870000	      3.54352441898318070000	      0.94737242586615744000	      1.02927524742352920000	     -0.32971619333054059000	     -8.06198733067567020000	      3.41751987877115320000	      0.79832250611162436000	    -75.63525699509173700000	     -5.37442972966673160000	     -0.00000000000009313730	      0.00000000000022623269	     26.16914961200467400000	     10.70723822602640700000	      4.93173964977288030000	    -15.09882844372207000000	     -8.67021089118000000000	     -0.00000000000002412570	      0.00000000000001504315	     -5.78681160757130100000	     -3.89892041564129420000	     10.17054704703590500000	    -26.04959706783680000000	    -12.77578467649918200000	     -1.87360595073087130000	    122.25857436719066000000	    100.31008236990188000000	      0.00000000000001182895	     -0.00000000000002621149	    -41.71784320480237100000	     -9.82170655257790590000	    -12.50059000621151900000	    126.72173315876830000000	     86.21583474026880400000	      0.00000000000000936281	     -0.00000000000000347883
      1.73249999999999990000	     -2.58828508670313570000	      4.63412329243152320000	      3.58184072065900550000	      0.94727649867286801000	      1.02862303276117490000	     -0.32971608701821636000	     -7.75807155083236210000	      3.41786352908505680000	      0.73535445977450586000	    -76.28526302262038400000	     -5.25605970030613890000	     -0.00000000000009358743	      0.00000000000022730922	     26.14017906835001500000	     10.76289424011613100000	      5.04869397617747500000	    -15.26861906287357100000	     -8.62812803069049570000	     -0.00000000000002424104	      0.00000000000001505724	     -5.78964283337446160000	     -3.93251227532883620000	     10.08272228116803900000	    -26.12756689793882700000	    -12.76557948168246300000	     -1.94012692979138320000	    122.09894307781828000000	    100.26652083664000000000	      0.00000000000001188876	     -0.00000000000002633376	    -41.57650429881506700000	     -9.84860746823217250000	    -12.48570660082370200000	    126.63701370332093000000	     86.29892046976063100000	      0.00000000000000938265	     -0.00000000000000349832
      1.73350000000000000000	     -2.61041727273030100000	      4.63950454830681200000	      3.61990348922897500000	      0.94717670479097615000	      1.02795151025880860000	     -0.32971794210427502000	     -7.44399269326090170000	      3.41854557390048970000	      0.67224697991153126000	    -76.93563217295476900000	     -5.13785168180571090000	     -0.00000000000009403902	      0.00000000000022838683	     26.12016366427761600000	     10.81775556312381100000	      5.16827651583097940000	    -15.45146800308873100000	     -8.56841652728261850000	     -0.00000000000002435037	      0.00000000000001506280	     -5.78520463311379900000	     -3.96365024514235740000	      9.99512277472477530000	    -26.20640786793464400000	    -12.75621832405169400000	     -2.00701457709711220000	    121.93911574140196000000	    100.22493187408635000000	      0.00000000000001194824	     -0.00000000000002645585	    -41.43432618099901500000	     -9.87673403008035680000	    -12.46976701898342900000	    126.55074895928453000000	     86.38406252564286100000	      0.00000000000000940227	     -0.00000000000000351751
      1.73449999999999990000	     -2.63719388137773690000	      4.64313225059360150000	      3.65772994197093610000	      0.94707348992063567000	      1.02726368377151810000	     -0.32972200882062297000	     -7.12201374239304390000	      3.41908003691713170000	      0.60879336862404743000	    -77.58575878827440400000	     -5.01984224987788960000	     -0.00000000000009449218	      0.00000000000022946626	     26.10690423990945800000	     10.87229929672983900000	      5.29012341562217700000	    -15.64690156952856300000	     -8.49069657115219200000	     -0.00000000000002444949	      0.00000000000001506832	     -5.77557914360809210000	     -3.99272160690209920000	      9.90750894484667020000	    -26.28577490689091100000	    -12.74776328821520900000	     -2.07424054367740720000	    121.77920601323383000000	    100.18523614097957000000	      0.00000000000001200805	     -0.00000000000002657832	    -41.29105828384196300000	     -9.90607280910247920000	    -12.45275916855953100000	    126.46308197666322000000	     86.47103338881278500000	      0.00000000000000942118	     -0.00000000000000353107
